# xmcd
#
# Track frame offsets:
#	150
#	13027
#	22676
#	36043
#	47231
#	57368
#	69594
#	81119
#	92221
#	104553
#	116230
#	125114
#	137364
#	147445
#	160910
#	170974
#	185005
#	197565
#	209887
#	220397
#	232881
#	242587
#
# Disc length: 3397 seconds
#
# Revision: 1
# Processed by: cddbd v1.5.2PL0 Copyright (c) Steve Scherf et al.
# Submitted via: audiograbber 1.83.01
#
DISCID=4c0d4316
DTITLE=Lightnin' Slim - I'm A Rolling Stone: Singles 1954-1962 CD 2
DYEAR=1900
DGENRE=Blues
TTITLE0=My Starter Won't Start
TTITLE1=Long Leanie Mama
TTITLE2=Feelin' Awful Blues
TTITLE3=I'm Leavin' You
TTITLE4=Sweet Little Woman
TTITLE5=Lightnin's Troubles
TTITLE6=Rooster Blues
TTITLE7=G. I. Slim
TTITLE8=Tom Cat Blues
TTITLE9=Bed Bug Blues
TTITLE10=Too Close Blues
TTITLE11=My Little Angel Chile
TTITLE12=Cool Down Baby
TTITLE13=Nothin' But The Devil
TTITLE14=I Just Don't Know
TTITLE15=Somebody Knockin'
TTITLE16=I'm Tired Waiting Baby
TTITLE17=Hello Mary Lee
TTITLE18=Mind Your Own Business
TTITLE19=You're Old Enough To Understand
TTITLE20=I'm Warning You Baby
TTITLE21=Wintertime Blues
EXTD=
EXTT0=
EXTT1=
EXTT2=
EXTT3=
EXTT4=
EXTT5=
EXTT6=
EXTT7=
EXTT8=
EXTT9=
EXTT10=
EXTT11=
EXTT12=
EXTT13=
EXTT14=
EXTT15=
EXTT16=
EXTT17=
EXTT18=
EXTT19=
EXTT20=
EXTT21=
PLAYORDER=
